<?xml version="1.0" encoding="UTF-8" standalone="no"?>
<svg
   version="1.1"
   height="0.9em"
   viewBox="0 0 15.107399 8.6918963"
   xmlns="http://www.w3.org/2000/svg"
   xmlns:svg="http://www.w3.org/2000/svg">
  <path
     style="fill:currentColor;stroke-width:0.32"
     d="m 0.04428536,0.53189745 c 0,-0.7009 9.00820994,-0.713064 9.58925894,-0.01295 0.26336,0.317331 1.1735017,0.49684695 2.8391817,0.55999995 l 2.451563,0.09295 0.09155,3.12 0.09156,3.119999 h -2.571584 c -2.358252,0 -2.5715847,0.05309 -2.5715847,0.64 0,0.610325 -0.213338,0.64 -4.6008219,0.64 -3.699233,0 -4.94860534,-0.196554 -5.26890544,-0.582494 0.016997,-2.20245 -0.179455,-5.5652881 -0.0502176,-7.57750495 z M 12.204291,1.6518964 c -1.280002,0 -2.2400017,0.137143 -2.2400017,0.32 0,0.176 0.7200007,0.32 1.6000007,0.32 1.435156,0 1.600004,0.07253 1.600004,0.704 0,0.547556 -0.08532,0.618667 -0.384001,0.32 -0.211202,-0.2112 -0.931202,-0.384 -1.600003,-0.384 -1.2115797,0 -1.2160007,0.0048 -1.2160007,1.320714 v 1.320713 l 1.6000007,-0.15374 c 1.120796,-0.107694 1.600004,-0.03812 1.600004,0.232313 0,0.271435 -0.484508,0.339498 -1.631899,0.229249 -1.469077,-0.14116 -1.6204007,-0.09657 -1.516688,0.446973 0.09707,0.508745 0.454657,0.618671 2.271892,0.698399 l 2.156697,0.09462 v -2.734621 -2.73462 z m -3.2000017,3.68 c -0.6262791,-0.566776 -0.6399981,-0.558922 -0.6399981,0.366404 0,0.906006 0.4825941,1.713596 1.0239971,1.713596 0.517038,0 0.236744,-1.518235 -0.383999,-2.08 z m 0,-4.47999895 c -0.6332781,-0.57311 -0.6399981,-0.558923 -0.6399981,1.35122095 0,1.224534 0.1570312,2.060738 0.4294421,2.28682 0.630184,0.523003 0.850556,0.118352 0.850556,-1.561779 0,-1.090673 -0.173736,-1.654299 -0.64,-2.07626195 z M 5.7259259,7.0918964 c -2.2392739,0 -2.5100921,0.06014 -2.1616359,0.48 0.2933532,0.35347 1.0731935,0.48 2.9583654,0.48 2.2392749,0 2.5100899,-0.06014 2.1616349,-0.48 -0.2933521,-0.353469 -1.0731924,-0.48 -2.9583644,-0.48 z M 6.2454192,2.1029344 4.7665466,0.37189745 H 2.7254177 0.68428866 V 2.5520274 c 0,1.970916 0.086131,2.262648 0.89751054,3.04 0.8247912,0.7902 1.1099915,0.859869 3.5200016,0.859869 h 2.6224901 v -1.308962 c 0,-1.093417 -0.2435231,-1.59401 -1.4788717,-3.04 z M 6.5727734,0.37189745 H 5.4212559 L 6.3327733,1.4687934 c 1.1626756,1.399134 1.3915176,1.402933 1.3915176,0.0231 0,-1.07250495 -0.048828,-1.11999895 -1.1515175,-1.11999895 z M 1.9642893,6.6118964 0.68428866,5.3620104 v 1.344943 1.344943 H 1.9642893 c 0.7040004,0 1.2800006,-0.04278 1.2800006,-0.09506 0,-0.05228 -0.5760002,-0.657505 -1.2800006,-1.344943 z"/>
</svg>
