<?xml version="1.0" encoding="UTF-8" standalone="no"?>
<svg
   height="2em"
   viewBox="-2 0 28 24"
   fill="none"
   version="1.1"
   xmlns="http://www.w3.org/2000/svg"
   xmlns:svg="http://www.w3.org/2000/svg">
  <path
     fill-rule="evenodd"
     clip-rule="evenodd"
     d="m 18.73,7.75739 4.2498,4.23551 -4.2355,4.2497 -1.438697,-0.01968 L 19.142,13.0103 6.85364,12.635337 C 6.44678,13.801837 5.33954,15.0584 4.03368,15.0642 2.37684,15.0717 1.02767,13.7346 1.02023,12.0777 1.01279,10.4209 2.34989,9.07173 4.00673,9.06429 5.31328,9.05842 6.4285,10.315437 6.84531,11.479267 L 19.1607,11.0103 17.362394,7.7818635 Z M 6.8147667,12.0598 c 0,-1.00585 -2.7900767,2.281214 -2.7990567,-1.980758 C 3.46343,10.081442 2.1631697,11.5165 2.1656497,12.0687 2.1681297,12.621 3.47242,14.343514 4.02469,14.341014 4.01571,10.079042 6.8147667,13.029232 6.8147667,12.0598 Z"
     fill="currentColor"
     id="path2"
     style="stroke:none;stroke-opacity:1" />
</svg>
