<?xml version="1.0" encoding="UTF-8" standalone="no"?>
<svg
   version="1.1"
   height="0.9em"
   viewBox="0 0 30.643289 19.814867"
   xmlns="http://www.w3.org/2000/svg"
   xmlns:svg="http://www.w3.org/2000/svg">
  <path
     style="fill:currentColor;stroke-width:0.32"
     d="M 7.6032914,19.504876 C 3.7416035,18.325946 0.57984556,14.668871 0.0443099,10.761712 -0.2059899,8.935576 0.63054566,5.9947492 1.8868999,4.2841162 c 2.7719675,-3.774267 7.8237276,-5.411335 10.1163911,-3.278306 0.396,0.368427 0.72,0.924601 0.72,1.235942 0,0.792423 -1.224103,1.562364 -2.48395,1.562364 -1.1872292,0 -3.1641933,0.902169 -3.9574611,1.805949 -2.0814771,2.3714548 -2.0814771,6.1766478 0,8.5481028 0.8019167,0.913634 2.7749522,1.805948 3.9932121,1.805948 2.568727,0 3.29151,2.426595 1.007087,3.381088 -1.18404,0.494723 -2.4074643,0.547823 -3.6788876,0.159672 z M 18.96329,19.421736 c -1.840322,-1.043581 -1.522484,-1.892114 2.08,-5.552979 1.76,-1.788522 3.2,-3.509609 3.2,-3.824639 0,-0.315029 -1.44,-2.036116 -3.2,-3.8246378 -3.540336,-3.597709 -3.876956,-4.396416 -2.356845,-5.592136 1.459832,-1.148304 2.128005,-0.883528 5.48335,2.172883 4.627109,4.2148718 6.473495,6.2708768 6.473495,7.2084258 0,0.605853 -0.984001,1.764851 -4.010329,4.723535 -5.312692,5.193941 -6.018811,5.625691 -7.669671,4.689548 z M 7.9963358,11.730454 C 7.1538078,11.324409 6.7242376,10.014842 7.1907512,9.274588 7.4648869,8.839595 8.471258,8.75129 13.99695,8.677366 c 4.643625,-0.06212 6.614308,0.02098 6.94176,0.292744 0.727711,0.603947 0.402373,2.270071 -0.53542,2.741992 -1.025428,0.516021 -11.3426448,0.531282 -12.4069542,0.01835 z"/>
</svg>
