<?xml version="1.0" encoding="UTF-8" standalone="no"?>
<svg
   version="1.1"
   height="0.9em"
   viewBox="0 0 30.414772 19.503591"
   xmlns="http://www.w3.org/2000/svg"
   xmlns:svg="http://www.w3.org/2000/svg">
  <path
     style="fill:currentColor;stroke-width:0.32"
     d="M 12.420742,19.242784 C 10.291677,18.648957 8.1741068,17.304959 6.9677862,15.781855 5.9239821,14.463945 4.6695185,11.437471 4.9673242,10.955612 5.0519132,10.818744 5.6959719,10.70676 6.3985658,10.70676 c 1.1548492,0 1.3218751,0.106342 1.7404313,1.108088 0.6717977,1.607838 2.3466999,3.385081 3.8216089,4.055118 3.128226,1.421123 7.083399,0.05259 8.679531,-3.003206 0.408908,-0.782857 0.637744,-0.88 2.072995,-0.88 1.525729,0 1.601256,0.0391 1.390723,0.72 -0.782159,2.529627 -2.94359,4.943092 -5.381335,6.008825 -1.818355,0.794947 -4.528822,1.021702 -6.301778,0.527199 z m 12.878389,-7.036648 c -1.392708,-1.48247 -0.544637,-3.739375 1.405135,-3.739375 1.022565,0 3.661549,1.494417 3.710383,2.101134 0.01004,0.124715 -0.593663,0.71098 -1.341558,1.30281 -1.604407,1.269613 -2.79678,1.375592 -3.77396,0.335431 z M 12.548468,11.860723 c -1.269233,-1.091747 -1.269233,-3.136178 0,-4.227925 2.059687,-1.771668 5.014882,-0.525941 5.014882,2.113963 0,2.639903 -2.955195,3.88563 -5.014882,2.113962 z m 3.22097,-1.553963 c 0.514187,-0.8212 -0.140629,-1.679999 -1.280963,-1.679999 -0.724413,0 -0.947971,0.161257 -1.03043,0.743272 -0.05792,0.408799 -0.02274,0.958443 0.07818,1.221431 0.245172,0.638908 1.777194,0.443597 2.233213,-0.284704 z M 0.74880641,10.881306 C -0.21075554,9.921744 -0.2443875,9.137168 0.62657749,8.029915 1.5112534,6.905232 3.5188763,6.832427 4.2652065,7.897962 4.9785677,8.916429 4.8799997,10.165614 4.0227274,10.97098 3.0402735,11.893947 1.725434,11.857934 0.74880641,10.881306 Z M 21.074292,7.639314 c -0.84477,-2.559679 -3.616829,-4.612553 -6.228471,-4.612553 -2.62275,0 -5.3598128,1.709078 -6.2748339,3.918135 C 8.1945046,7.853804 8.1075136,7.88965 6.7348557,7.701507 5.9423469,7.592882 5.2273191,7.437394 5.1459047,7.35598 4.7976561,7.007731 6.8113792,3.625568 8.0137123,2.539332 10.057383,0.692998 11.877563,0 14.683351,0 c 2.802547,0 4.625923,0.692958 6.660857,2.531398 1.467688,1.325968 2.939142,4.008497 2.939142,5.358193 0,0.847648 -0.07811,0.89717 -1.415183,0.89717 -1.340061,0 -1.435285,-0.06091 -1.793875,-1.147447 z"/>
</svg>
